<?xml version="1.0" encoding="utf-8"?>
<!-- Generator: Adobe Illustrator 16.0.0, SVG Export Plug-In . SVG Version: 6.00 Build 0)  -->
<!DOCTYPE svg PUBLIC "-//W3C//DTD SVG 1.1//EN" "http://www.w3.org/Graphics/SVG/1.1/DTD/svg11.dtd">
<svg version="1.1" id="Layer_1" xmlns="http://www.w3.org/2000/svg" xmlns:xlink="http://www.w3.org/1999/xlink" x="0px" y="0px"
	 width="300px" height="200px" viewBox="0 0 300 200" enable-background="new 0 0 300 200" xml:space="preserve">
<polygon fill="#84CC93" points="282.79,92.336 106.105,146.504 44.77,52.837 233.825,83.821 "/>
<polyline fill="#9CD7A5" points="243.477,84.5 42.455,89.599 42.455,39.582 "/>
<g>
	<g>
		<path fill="none" stroke="#000000" stroke-width="4" stroke-miterlimit="10" d="M63.682,184.639"/>
		<path fill="none" stroke="#000000" stroke-width="4" stroke-miterlimit="10" d="M63.682,129.443"/>
		<path fill="none" stroke="#000000" stroke-width="4" stroke-miterlimit="10" d="M106.105,146.504"/>
		<path fill="none" stroke="#000000" stroke-width="4" stroke-miterlimit="10" d="M63.682,129.443"/>
		<path fill="none" stroke="#000000" stroke-width="4" stroke-miterlimit="10" d="M63.682,129.443"/>
		<path fill="none" stroke="#000000" stroke-width="4" stroke-miterlimit="10" d="M21.26,146.504"/>
	</g>
</g>
<polyline fill="#77A27D" points="285.794,93.956 41.972,143.917 42.943,82.321 282.814,92.336 "/>
<polyline fill="#84CC93" points="284.251,91.777 42.455,82.321 42.455,37.403 284.251,91.777 "/>
<polygon opacity="0.3" fill="#383C38" enable-background="new    " points="164.582,137.011 41.932,143.917 42.455,46.5 "/>
<line fill="none" x1="1.707" y1="14.371" x2="289.861" y2="92.905"/>
<polyline fill="#9CD7A5" points="289.861,93.956 42.455,46.5 12.67,14.669 "/>
<polygon fill="#465248" points="122.5,140.204 39.932,143.917 96.812,107.609 "/>
<path fill="none" stroke="#1C832B" stroke-miterlimit="10" d="M78.943,8.787"/>
<path fill="none" stroke="#1C832B" stroke-miterlimit="10" d="M35.946,17.328"/>
<polyline fill="#9CD7A5" points="289.861,92.905 106.105,184.639 96.812,107.609 289.861,92.905 "/>
</svg>
